<svg xmlns="http://www.w3.org/2000/svg" viewBox="0 0 28 28"><title>icon-date</title><g id="Слой_2" data-name="Слой 2"><g id="Слой_1-2" data-name="Слой 1"><circle cx="14" cy="14" r="14" style="fill:#1a9000"/><path d="M21.09,17.31l-1.63,2.34-1.15-.94a.29.29,0,1,0-.37.45l1.39,1.14a.29.29,0,0,0,.18.07h0a.28.28,0,0,0,.2-.12l1.81-2.6a.29.29,0,0,0-.48-.33Zm0,0" style="fill:#fff"/><path d="M21.33,15.58V7A.29.29,0,0,0,21,6.71H19.59V5.84a.29.29,0,0,0-.29-.29h-2a.29.29,0,0,0-.29.29v.87h-6.4V5.84a.29.29,0,0,0-.29-.29h-2A.29.29,0,0,0,8,5.84v.87H6.5A.29.29,0,0,0,6.21,7V21.84a.29.29,0,0,0,.29.29H17.58a3.78,3.78,0,1,0,3.75-6.55ZM17.55,6.13H19V7.87H17.55Zm-9,0H10V7.87H8.53ZM6.79,7.29H8v.87a.29.29,0,0,0,.29.29h2a.29.29,0,0,0,.29-.29V7.29H17v.87a.29.29,0,0,0,.29.29h2a.29.29,0,0,0,.29-.29V7.29h1.16V9.62h-14Zm0,14.25V10.2h14v5.13l-.17,0-.16,0-.15,0-.21,0-.12,0-.35,0-.29,0V11.66H8.25v8.43H16l0,.08c0,.07,0,.14.08.21l.05.11.11.22.05.09.14.22.06.08.16.21.07.07.14.16Zm11.14-6-.09,0-.16.09-.14.08-.13.09-.15.11-.12.09-.15.13-.1.1-.15.17-.06.07V14.86h2v.4h0a3.87,3.87,0,0,0-.77.28Zm-2,2.29,0,.1c0,.08,0,.17-.07.26s0,.13,0,.2,0,.11,0,.17a3.75,3.75,0,0,0,0,.38c0,.11,0,.21,0,.32s0,0,0,.06,0,.09,0,.14,0,0,0,.07H14.06v-2h2v0c0,.11-.08.21-.12.33Zm-7.15-.35h2v2h-2Zm0-2.62h2v2h-2Zm9.89-.58h-2v-2h2Zm-2.62,0h-2v-2h2Zm0,2.62h-2v-2h2Zm-4.65-2h2v2h-2Zm2-.58h-2v-2h2Zm-2.62,0h-2v-2h2Zm.58,3.2h2v2h-2Zm8.15,4.65a3.18,3.18,0,0,1-1.78-.54l-.28-.21-.09-.08-.17-.16-.1-.11L17,20.85,17,20.74a3,3,0,0,1-.18-.29l0-.07c0-.08-.08-.17-.12-.25l0-.12-.07-.23v-.05a3.33,3.33,0,0,1-.07-.38v0a3,3,0,0,1,0-.39,3.18,3.18,0,0,1,0-.33v0c0-.1,0-.2,0-.3v0c0-.1,0-.19.08-.29v0c0-.09.06-.18.1-.27l.12-.24,0,0,0-.06.16-.25L17,17l.16-.2.06-.07.18-.17.07-.06.22-.17,0,0a3.17,3.17,0,0,1,1.28-.52h0a3.22,3.22,0,0,1,.53,0l.34,0H20l.28,0h0l.3.08h0l.3.12a3.2,3.2,0,0,1-1.32,6.11Zm0,0" style="fill:#fff"/></g></g></svg>