<svg xmlns="http://www.w3.org/2000/svg" viewBox="0 0 40 40.3"><title>icon-zoom-gray</title><g id="Слой_2" data-name="Слой 2"><g id="Слой_1-2" data-name="Слой 1"><path d="M0,40.21V38.73l5.23-8.3h-5V28.89h7v1.4L2,38.66H7.25v1.54Z" style="fill:#a7a9ac"/><path d="M16.13,39.09a4.09,4.09,0,0,1-3,1.21,4,4,0,0,1-3-1.21c-1.11-1.11-1.1-2.37-1.1-4.55s0-3.43,1.1-4.55a4,4,0,0,1,3-1.21,4.09,4.09,0,0,1,3,1.21c1.11,1.11,1.08,2.37,1.08,4.55S17.24,38,16.13,39.09ZM14.83,31a2.38,2.38,0,0,0-3.37,0c-.56.6-.67,1.24-.67,3.51s.11,2.91.67,3.51a2.38,2.38,0,0,0,3.37,0c.56-.6.67-1.24.67-3.51S15.38,31.64,14.83,31Z" style="fill:#a7a9ac"/><path d="M26.4,39.09a4.28,4.28,0,0,1-6,0c-1.11-1.11-1.1-2.37-1.1-4.55s0-3.43,1.1-4.55a4.28,4.28,0,0,1,6,0c1.11,1.11,1.08,2.37,1.08,4.55S27.51,38,26.4,39.09ZM25.09,31a2.38,2.38,0,0,0-3.37,0c-.56.6-.67,1.24-.67,3.51s.11,2.91.67,3.51a2.38,2.38,0,0,0,3.37,0c.56-.6.67-1.24.67-3.51S25.65,31.64,25.09,31Z" style="fill:#a7a9ac"/><path d="M38.28,40.21V32.64l-2.61,5.52H34.4l-2.67-5.52v7.57H30V28.89h1.72l3.31,7,3.24-7H40V40.21Z" style="fill:#a7a9ac"/><path d="M20.13,6c-.32-.43-.81-1.29-.28-2a4.12,4.12,0,0,0,.59-3.8.36.36,0,0,0-.68.26,3.39,3.39,0,0,1-.48,3.1,2.14,2.14,0,0,0,0,2.45,6.46,6.46,0,0,0-5.74,6.41v7.27a6.45,6.45,0,1,0,12.91,0V12.44A6.45,6.45,0,0,0,20.13,6Zm.59,5.79a.73.73,0,0,1-1.47,0V8.09a.73.73,0,1,1,1.47,0Z" style="fill:#a7a9ac"/></g></g></svg>