<svg xmlns="http://www.w3.org/2000/svg" viewBox="0 0 28 28"><title>icon-loup</title><g id="Слой_2" data-name="Слой 2"><g id="Слой_1-2" data-name="Слой 1"><circle cx="14" cy="14" r="14" style="fill:#1a9000"/><path d="M23,20.45,18.61,16.1a8.38,8.38,0,0,1-2.52,2.52L20.45,23A1.78,1.78,0,0,0,23,20.45Zm0,0" style="fill:#fff"/><path d="M18.74,11.63a7.12,7.12,0,1,0-7.12,7.12,7.12,7.12,0,0,0,7.12-7.12ZM11.63,17A5.34,5.34,0,1,1,17,11.63,5.34,5.34,0,0,1,11.63,17Zm0,0" style="fill:#fff"/><path d="M7.48,11.63H8.66a3,3,0,0,1,3-3V7.48a4.16,4.16,0,0,0-4.15,4.15Zm0,0" style="fill:#fff"/></g></g></svg>