<svg xmlns="http://www.w3.org/2000/svg" viewBox="0 0 26.96 40"><title>icon-add-object</title><g id="Слой_2" data-name="Слой 2"><g id="Слой_1-2" data-name="Слой 1"><path d="M13.33,0l.3.05A13.68,13.68,0,0,0,0,13.74a19.56,19.56,0,0,0,2.79,8.79s8.45,14.26,9.34,15.62A21.66,21.66,0,0,0,13.48,40a21.69,21.69,0,0,0,1.35-1.85c.9-1.37,9.34-15.83,9.34-15.83A19.33,19.33,0,0,0,27,13.63,13.63,13.63,0,0,0,13.33,0Zm.1,24.3A10.89,10.89,0,1,1,24.32,13.41,10.89,10.89,0,0,1,13.43,24.3Z" style="fill:#1a9000"/><path d="M13.48,4.51a8.9,8.9,0,1,0,8.9,8.9A8.91,8.91,0,0,0,13.48,4.51Zm1.18,10.63v5h-3v-5H6.51v-3h5.17v-5h3v5H20v3Z" style="fill:#1a9000"/></g></g></svg>