<svg xmlns="http://www.w3.org/2000/svg" viewBox="0 0 30 30"><title>icon-vk</title><g id="Слой_2" data-name="Слой 2"><g id="Слой_1-2" data-name="Слой 1"><path d="M4.62,0H25.38A4.62,4.62,0,0,1,30,4.62V25.38A4.62,4.62,0,0,1,25.38,30H4.62A4.62,4.62,0,0,1,0,25.38V4.62A4.62,4.62,0,0,1,4.62,0Z" style="fill:#4d75a3;fill-rule:evenodd"/><path d="M21.8,15.25s2.59-3.66,2.85-4.86c.09-.43-.1-.67-.55-.67H21.85a.82.82,0,0,0-.86.55,20.37,20.37,0,0,1-2.7,4.22c-.47.53-.72.69-1,.69S17,15,17,14.53V10.36c0-.58-.07-.76-.55-.76H12.85a.39.39,0,0,0-.45.38c0,.55.84.67.84,2.16v3.07c0,.62,0,.86-.33.86-.77,0-2.61-2.66-3.64-5.68-.21-.62-.43-.79-1-.79H6a.54.54,0,0,0-.57.55c0,.6.7,3.38,3.47,7.11,1.85,2.51,4.29,3.86,6.49,3.86,1.34,0,1.67-.22,1.67-.79V18.41c0-.48.19-.69.46-.69s.85.1,2.13,1.36c1.51,1.44,1.61,2,2.44,2h2.52c.26,0,.5-.12.5-.55s-.74-1.58-1.87-2.78c-.46-.62-1.22-1.29-1.46-1.6S21.56,15.63,21.8,15.25Z" style="fill:#fff"/></g></g></svg>