<svg xmlns="http://www.w3.org/2000/svg" viewBox="0 0 79.88 79.88"><title>img-sign1</title><g id="Слой_2" data-name="Слой 2"><g id="Слой_1-2" data-name="Слой 1"><circle cx="39.94" cy="39.94" r="37.03" style="fill:#fff"/><path d="M39.94,79.88A39.94,39.94,0,1,1,79.88,39.94,40,40,0,0,1,39.94,79.88Zm0-74.07A34.13,34.13,0,1,0,74.07,39.94,34.17,34.17,0,0,0,39.94,5.81Z" style="fill:#be1e2d"/><path d="M25.85,58.87c-6.59,0-11.61-4.13-11.61-11.51,0-3.4,1.47-6.54,3.14-9.94l7.84-16.11h7.43L24.91,36.7a7.36,7.36,0,0,1,2.77-.47c5,0,9.78,4.13,9.78,11C37.46,54.58,32.44,58.87,25.85,58.87Zm0-17c-2.77,0-4.81,2-4.81,5.44s2,5.44,4.81,5.44,4.81-2,4.81-5.44C30.66,44,28.72,41.87,25.85,41.87Z"/><path d="M54.34,58.87c-6.07,0-11.35-4-11.35-11.09V32.09C43,25,48.28,21,54.34,21s11.3,4,11.3,11.09V47.78C65.64,54.9,60.41,58.87,54.34,58.87Zm4.5-26.67c0-3.14-1.83-5.07-4.5-5.07s-4.55,1.93-4.55,5.07V47.73c0,3.14,1.88,5,4.55,5s4.5-1.88,4.5-5Z"/></g></g></svg>