<svg xmlns="http://www.w3.org/2000/svg" xmlns:xlink="http://www.w3.org/1999/xlink" viewBox="0 0 82.16 82.16"><defs><radialGradient id="Super_Soft_Black_Vignette" cx="41.08" cy="41.08" r="41.08" gradientUnits="userSpaceOnUse"><stop offset="0.57" stop-color="#130c0e"/><stop offset="0.8" stop-color="#130c0e"/><stop offset="1" stop-color="#130c0e"/></radialGradient></defs><title>img-sign2</title><g id="Слой_2" data-name="Слой 2"><g id="Слой_1-2" data-name="Слой 1"><rect x="1.14" y="1.14" width="79.88" height="79.88" rx="6.43" ry="6.43" style="fill:#fff;stroke-miterlimit:10;stroke-width:2.28221844257149px;stroke:url(#Super_Soft_Black_Vignette)"/><path d="M54.2,27.32,41.67,7.8a.88.88,0,0,0-1.49,0L28,27.32a.87.87,0,0,0,0,.91.9.9,0,0,0,.78.46h7.1V40.22a.88.88,0,0,0,.89.89h8.87a.88.88,0,0,0,.89-.89V28.68h7a.9.9,0,0,0,.78-.46A.91.91,0,0,0,54.2,27.32Z"/><path d="M51.2,44.45H31a3.6,3.6,0,0,0-3.6,3.61V66.83a3.6,3.6,0,0,0,2.89,3.54v1a3.35,3.35,0,0,0,3.35,3.36h.51a3.37,3.37,0,0,0,3.36-3.36v-1H44.7v1a3.36,3.36,0,0,0,3.36,3.36h.49a3.35,3.35,0,0,0,3.35-3.36v-1a3.6,3.6,0,0,0,2.89-3.54V48.06A3.6,3.6,0,0,0,51.2,44.45ZM32.77,67a1.72,1.72,0,1,1,1.72-1.72A1.72,1.72,0,0,1,32.77,67Zm-.42-12.44a.68.68,0,0,1-.65-.72V49.51a.68.68,0,0,1,.65-.72H50.17c.09,0,.3,0,.3.72v4.33c0,.72-.22.72-.3.72ZM49.39,67a1.72,1.72,0,1,1,1.72-1.72A1.72,1.72,0,0,1,49.39,67Z"/></g></g></svg>