<svg xmlns="http://www.w3.org/2000/svg" xmlns:xlink="http://www.w3.org/1999/xlink" viewBox="0 0 82.23 53.84"><defs><radialGradient id="Super_Soft_Black_Vignette" cx="41.91" cy="0.67" r="34.45" gradientTransform="matrix(1, 0, 0, 1.03, -0.8, 26.19)" gradientUnits="userSpaceOnUse"><stop offset="0.57" stop-color="#130c0e"/><stop offset="0.8" stop-color="#130c0e"/><stop offset="1" stop-color="#130c0e"/></radialGradient></defs><title>img-sign4</title><g id="Слой_2" data-name="Слой 2"><g id="Слой_1-2" data-name="Слой 1"><rect x="1.17" y="1.19" width="79.88" height="51.46" rx="6.52" ry="6.52" style="fill:#fff;stroke-miterlimit:10;stroke-width:2.31466037321692px;stroke:url(#Super_Soft_Black_Vignette)"/><polygon points="63.96 26.92 62.03 24.98 63.55 23.47 61.58 21.5 63.36 19.72 51.81 8.15 50.03 9.93 48.51 11.44 45.78 14.17 44.72 15.23 49.56 20.08 27.26 42.35 30.59 45.69 52.9 23.42 60.17 30.71 63.96 26.92"/><polygon points="18.26 26.88 20.2 24.95 18.68 23.43 20.66 21.46 18.88 19.68 30.45 8.13 32.23 9.91 33.74 11.43 36.47 14.16 37.53 15.22 32.67 20.07 54.94 42.38 51.6 45.71 29.34 23.4 22.05 30.67 18.26 26.88"/></g></g></svg>