<svg xmlns="http://www.w3.org/2000/svg" xmlns:xlink="http://www.w3.org/1999/xlink" viewBox="0 0 82.19 53.78"><defs><radialGradient id="Super_Soft_Black_Vignette" cx="41.1" cy="3.31" r="34.45" gradientTransform="translate(0 23.48) scale(1 1.03)" gradientUnits="userSpaceOnUse"><stop offset="0.57" stop-color="#130c0e"/><stop offset="0.8" stop-color="#130c0e"/><stop offset="1" stop-color="#130c0e"/></radialGradient></defs><title>img-sign3</title><g id="Слой_2" data-name="Слой 2"><g id="Слой_1-2" data-name="Слой 1"><rect x="1.16" y="1.16" width="79.88" height="51.46" rx="6.52" ry="6.52" style="fill:#fff;stroke-miterlimit:10;stroke-width:2.31466037321692px;stroke:url(#Super_Soft_Black_Vignette)"/><path d="M55.43,25.36,28.7,19c-1.46-.35-2.81.23-2.93,1.24l-.95,7.86C24.72,29,25.64,30,27,30.3l25,5.91c1.31.31,2.56-.12,2.87-1l2.68-7.45C57.84,26.82,56.89,25.7,55.43,25.36Z"/><path d="M27.94,19.51l3-7.6a2.57,2.57,0,0,1,3-1.56l20.73,4.91a2.57,2.57,0,0,1,2,2.73l-.73,8.14Z" style="fill:#fff;stroke:#000;stroke-miterlimit:10;stroke-width:1.92984610061174px"/><path d="M25.86,31.76h5.71a0,0,0,0,1,0,0v4.42a1.29,1.29,0,0,1-1.29,1.29H27.15a1.29,1.29,0,0,1-1.29-1.29V31.76a0,0,0,0,1,0,0Z" transform="translate(8.74 -5.68) rotate(13.31)"/><path d="M45.58,36.42h5.71a0,0,0,0,1,0,0v4.42A1.29,1.29,0,0,1,50,42.13H46.87a1.29,1.29,0,0,1-1.29-1.29V36.42A0,0,0,0,1,45.58,36.42Z" transform="translate(10.35 -10.1) rotate(13.31)"/><path d="M41.1,42.72V37.9H1.16v7.57A6.43,6.43,0,0,0,7.59,51.9h67A6.43,6.43,0,0,0,81,45.47V42.72Z"/></g></g></svg>