<svg xmlns="http://www.w3.org/2000/svg" viewBox="0 0 371.65 55.75"><title>logo-small</title><g id="Слой_2" data-name="Слой 2"><g id="Слой_1-2" data-name="Слой 1"><path d="M33.18,50.32l-4.46-11c-.52-1.27-1-2.42-1.55-3.42a19,19,0,0,0-1.67-2.72,12,12,0,0,0-1.94-2.05,9.77,9.77,0,0,0-1.43-1,19.31,19.31,0,0,0,3.12-1.58,13.34,13.34,0,0,0,3.14-2.72,11.33,11.33,0,0,0,2-3.64,14.4,14.4,0,0,0,.7-4.62,14.63,14.63,0,0,0-.77-4.85A11.5,11.5,0,0,0,28,8.83,12.56,12.56,0,0,0,24.14,6,19.63,19.63,0,0,0,18.9,4.39q-1-.12-2.27-.21c-.85-.06-1.91-.1-3.17-.1H2.89A3.16,3.16,0,0,0,1,4.76,2.88,2.88,0,0,0,0,7.2V53.29a1.37,1.37,0,0,0,.23.78,1.44,1.44,0,0,0,.75.53,6.09,6.09,0,0,0,1.1.25,13.8,13.8,0,0,0,3.32,0,5.66,5.66,0,0,0,1.08-.25,1.57,1.57,0,0,0,.73-.51,1.3,1.3,0,0,0,.26-.8V32.52h4a9.72,9.72,0,0,1,3.72.64,8.08,8.08,0,0,1,2.67,1.79,11.43,11.43,0,0,1,2,2.78c.57,1.1,1.12,2.32,1.66,3.63l4.57,11.71a3.49,3.49,0,0,0,.42.88,1.83,1.83,0,0,0,.77.63,4,4,0,0,0,1.14.28,14.52,14.52,0,0,0,1.69.08A18.13,18.13,0,0,0,32,54.87a4.74,4.74,0,0,0,1.19-.26A1.31,1.31,0,0,0,33.9,54a1.62,1.62,0,0,0,.16-.73,3.9,3.9,0,0,0-.17-1C33.78,51.92,33.55,51.27,33.18,50.32Zm-9.94-32a8.81,8.81,0,0,1-.57,3.19A6.5,6.5,0,0,1,20.92,24a8.53,8.53,0,0,1-3,1.68,14,14,0,0,1-4.38.61h-6V10.4h5.15c1.29,0,2.34,0,3.13.11a12.13,12.13,0,0,1,2.1.37A7,7,0,0,1,22,13.61,8.53,8.53,0,0,1,23.24,18.32Z" style="fill:#004e9f"/><path d="M64.21,20a10.73,10.73,0,0,0-4.4-2.59,21.32,21.32,0,0,0-6.48-.87,22.12,22.12,0,0,0-4,.37,27.24,27.24,0,0,0-3.67.94,20.28,20.28,0,0,0-3,1.26,8.71,8.71,0,0,0-1.88,1.24A2.63,2.63,0,0,0,40,21.62a8.47,8.47,0,0,0-.06,2.75,2.81,2.81,0,0,0,.3.93,1.75,1.75,0,0,0,.54.61c.53.35,1.16.34,2.4-.39.62-.37,1.4-.77,2.31-1.21a22.24,22.24,0,0,1,3.21-1.21,14.34,14.34,0,0,1,4.09-.54,11,11,0,0,1,3.55.5,5.48,5.48,0,0,1,2.27,1.42,5.68,5.68,0,0,1,1.27,2.38,13,13,0,0,1,.41,3.43v2.26H55.9a34.49,34.49,0,0,0-7.36.72,17.35,17.35,0,0,0-5.6,2.19,10.39,10.39,0,0,0-3.57,3.73,10.79,10.79,0,0,0-1.25,5.29,11.43,11.43,0,0,0,.9,4.64,9.68,9.68,0,0,0,2.53,3.46,11.15,11.15,0,0,0,3.92,2.14,16.6,16.6,0,0,0,5.07.73,13.91,13.91,0,0,0,6.09-1.39,17.33,17.33,0,0,0,4.44-3.11v2.42a1.27,1.27,0,0,0,.42,1,2.27,2.27,0,0,0,1.06.44,9.08,9.08,0,0,0,1.68.12,8.42,8.42,0,0,0,1.67-.12,2.55,2.55,0,0,0,1-.42,1.22,1.22,0,0,0,.48-1V30a20.17,20.17,0,0,0-.75-5.78A10.08,10.08,0,0,0,64.21,20Zm-9,18h5v6.75A19.42,19.42,0,0,1,56,48.42a8.53,8.53,0,0,1-4.42,1.21,6.37,6.37,0,0,1-4.5-1.48,5.13,5.13,0,0,1-1.58-4,5.84,5.84,0,0,1,.55-2.6,5,5,0,0,1,1.72-1.91,9,9,0,0,1,3-1.24A20.17,20.17,0,0,1,55.25,38Z" style="fill:#004e9f"/><path d="M106.19.78a5.18,5.18,0,0,0-1.05-.26,11.12,11.12,0,0,0-1.64-.1,10.32,10.32,0,0,0-1.59.1,6.25,6.25,0,0,0-1.05.25,1.3,1.3,0,0,0-.75.59,1.51,1.51,0,0,0-.19.72V21.16a19.29,19.29,0,0,0-4.35-3.24,12.22,12.22,0,0,0-5.76-1.38A15,15,0,0,0,83.17,18a13.2,13.2,0,0,0-4.83,4,18.45,18.45,0,0,0-2.92,6.28,31.8,31.8,0,0,0-1,8.17,33,33,0,0,0,.78,7.27,18.13,18.13,0,0,0,2.5,6.07,12.72,12.72,0,0,0,4.52,4.14A13.8,13.8,0,0,0,89,55.45a13.42,13.42,0,0,0,6.65-1.71,23.09,23.09,0,0,0,5-3.92v3.51a1.37,1.37,0,0,0,.22.78,1.43,1.43,0,0,0,.7.53,4.47,4.47,0,0,0,1,.24,11.94,11.94,0,0,0,2.78,0,4.12,4.12,0,0,0,1-.24,1.33,1.33,0,0,0,.67-.55,1.49,1.49,0,0,0,.19-.75V2.08a1.33,1.33,0,0,0-.25-.76A1.52,1.52,0,0,0,106.19.78ZM92.39,48.84a8.19,8.19,0,0,1-2.32.33,6.61,6.61,0,0,1-3.91-1.09,8.13,8.13,0,0,1-2.52-3,14.45,14.45,0,0,1-1.36-4.32,31.75,31.75,0,0,1-.4-5A24.1,24.1,0,0,1,82.35,31a14.16,14.16,0,0,1,1.49-4.14,8.48,8.48,0,0,1,2.62-2.9,6.75,6.75,0,0,1,3.88-1.08,8.28,8.28,0,0,1,4.78,1.6,24.56,24.56,0,0,1,4.8,4.67V42.67a31.41,31.41,0,0,1-2.71,3,18,18,0,0,1-2.52,2A8.75,8.75,0,0,1,92.39,48.84Z" style="fill:#004e9f"/><path d="M140.19,20a10.74,10.74,0,0,0-4.4-2.59,21.32,21.32,0,0,0-6.48-.87,22.13,22.13,0,0,0-4,.37,27.24,27.24,0,0,0-3.67.94,20.28,20.28,0,0,0-3,1.26,8.71,8.71,0,0,0-1.88,1.24,2.63,2.63,0,0,0-.77,1.27,8.47,8.47,0,0,0-.06,2.75,2.81,2.81,0,0,0,.3.93,1.74,1.74,0,0,0,.54.61c.53.35,1.16.34,2.4-.39.62-.37,1.4-.77,2.31-1.21a22.24,22.24,0,0,1,3.21-1.21,14.34,14.34,0,0,1,4.09-.54,11,11,0,0,1,3.55.5,5.48,5.48,0,0,1,2.27,1.42,5.68,5.68,0,0,1,1.27,2.38,13,13,0,0,1,.41,3.43v2.26h-4.34a34.49,34.49,0,0,0-7.36.72,17.35,17.35,0,0,0-5.6,2.19,10.39,10.39,0,0,0-3.57,3.73,10.79,10.79,0,0,0-1.25,5.29,11.42,11.42,0,0,0,.9,4.64,9.68,9.68,0,0,0,2.53,3.46,11.15,11.15,0,0,0,3.92,2.14,16.6,16.6,0,0,0,5.07.73,13.91,13.91,0,0,0,6.09-1.39,17.33,17.33,0,0,0,4.44-3.11v2.42a1.27,1.27,0,0,0,.42,1,2.27,2.27,0,0,0,1.06.44,9.08,9.08,0,0,0,1.68.12,8.42,8.42,0,0,0,1.67-.12,2.55,2.55,0,0,0,1-.42,1.23,1.23,0,0,0,.48-1V30a20.17,20.17,0,0,0-.75-5.78A10.08,10.08,0,0,0,140.19,20Zm-9,18h5v6.75A19.42,19.42,0,0,1,132,48.42a8.53,8.53,0,0,1-4.42,1.21,6.37,6.37,0,0,1-4.5-1.48,5.13,5.13,0,0,1-1.58-4,5.84,5.84,0,0,1,.55-2.6,5,5,0,0,1,1.72-1.91,9,9,0,0,1,3-1.24A20.17,20.17,0,0,1,131.23,38Z" style="fill:#004e9f"/><path d="M173.69,19.55a5.4,5.4,0,0,0-.09-.86,2.82,2.82,0,0,0-.16-.53,1.5,1.5,0,0,0-.42-.52,3,3,0,0,0-.92-.46,12.2,12.2,0,0,0-1.3-.36,11.11,11.11,0,0,0-1.38-.22q-.66-.06-1.17-.06a9.13,9.13,0,0,0-2.32.3,7.8,7.8,0,0,0-2.34,1.1,15.29,15.29,0,0,0-2.44,2.12,24.27,24.27,0,0,0-1.94,2.34V18.7A1.38,1.38,0,0,0,159,18a1.66,1.66,0,0,0-.59-.53,2.66,2.66,0,0,0-1-.28,17.7,17.7,0,0,0-2.92,0,3,3,0,0,0-1,.27,1.42,1.42,0,0,0-.65.56,1.5,1.5,0,0,0-.17.72V53.32a1.37,1.37,0,0,0,.2.75,1.44,1.44,0,0,0,.7.53,4.26,4.26,0,0,0,1.09.26,13.21,13.21,0,0,0,1.59.08,13.66,13.66,0,0,0,1.63-.08,3.91,3.91,0,0,0,1.08-.26,1.62,1.62,0,0,0,.67-.51,1.28,1.28,0,0,0,.24-.77V30.68c.86-1.35,1.66-2.51,2.37-3.44a15.43,15.43,0,0,1,2.08-2.28,7,7,0,0,1,1.83-1.2,5.3,5.3,0,0,1,3.13-.21q.67.15,1.22.32c.36.11.68.22,1,.34a1.58,1.58,0,0,0,1.69-.1,1.72,1.72,0,0,0,.39-.66,3.92,3.92,0,0,0,.18-1q0-.59,0-1.45T173.69,19.55Z" style="fill:#004e9f"/><path d="M185.73,4.2a6.16,6.16,0,0,0-1.1-.25,13.15,13.15,0,0,0-3.24,0,6.76,6.76,0,0,0-1.11.25,1.55,1.55,0,0,0-.78.51,1.3,1.3,0,0,0-.26.8V53.29a1.37,1.37,0,0,0,.22.78,1.44,1.44,0,0,0,.75.53,6.19,6.19,0,0,0,1.12.25,13.56,13.56,0,0,0,3.3,0,6.14,6.14,0,0,0,1.1-.25,1.45,1.45,0,0,0,.75-.53,1.38,1.38,0,0,0,.22-.78V5.51a1.38,1.38,0,0,0-.23-.78A1.45,1.45,0,0,0,185.73,4.2Z" style="fill:#1a9000"/><path d="M224.64,21a11,11,0,0,0-4-3.26,13.52,13.52,0,0,0-6-1.22,13,13,0,0,0-6.06,1.57,20.66,20.66,0,0,0-5.2,4.08V18.7a1.38,1.38,0,0,0-.2-.75,1.66,1.66,0,0,0-.59-.53,2.67,2.67,0,0,0-1-.28,17.49,17.49,0,0,0-2.92,0,3,3,0,0,0-1,.27A1.42,1.42,0,0,0,197,18a1.5,1.5,0,0,0-.17.72V53.32a1.37,1.37,0,0,0,.2.75,1.44,1.44,0,0,0,.7.53,4.26,4.26,0,0,0,1.09.26,13.21,13.21,0,0,0,1.59.08,13.66,13.66,0,0,0,1.63-.08,3.91,3.91,0,0,0,1.08-.26,1.62,1.62,0,0,0,.67-.51,1.28,1.28,0,0,0,.24-.77v-24a25.3,25.3,0,0,1,4.82-4.76,7.83,7.83,0,0,1,4.52-1.61,6.88,6.88,0,0,1,3.06.65,5.45,5.45,0,0,1,2.12,1.86,9.51,9.51,0,0,1,1.29,3,19.61,19.61,0,0,1,.45,4.66V53.32a1.28,1.28,0,0,0,.24.77,1.61,1.61,0,0,0,.67.51,3.93,3.93,0,0,0,1.08.26,13.61,13.61,0,0,0,1.63.08,13.25,13.25,0,0,0,1.59-.08,3.91,3.91,0,0,0,1.08-.26,1.62,1.62,0,0,0,.67-.51,1.28,1.28,0,0,0,.24-.77V32.2a27.92,27.92,0,0,0-.65-6.43A13,13,0,0,0,224.64,21Z" style="fill:#1a9000"/><path d="M253.62,18.1a1.62,1.62,0,0,0-.53-.62,1.38,1.38,0,0,0-.75-.2H245V13.93a22.33,22.33,0,0,1,.26-3.72,6.6,6.6,0,0,1,.83-2.38,3.26,3.26,0,0,1,1.43-1.28,5.36,5.36,0,0,1,2.24-.42,8.23,8.23,0,0,1,1.74.16,10.28,10.28,0,0,1,1.31.37l1,.38a1.52,1.52,0,0,0,1.45,0,1.1,1.1,0,0,0,.43-.59,4.87,4.87,0,0,0,.19-.78A7.48,7.48,0,0,0,256,4.47a12,12,0,0,0-.06-1.3,3.68,3.68,0,0,0-.24-1,2.29,2.29,0,0,0-.48-.73,3.35,3.35,0,0,0-1.06-.61,11.07,11.07,0,0,0-2-.56,14,14,0,0,0-2.7-.26,14.51,14.51,0,0,0-5.09.82,8.7,8.7,0,0,0-3.66,2.57,11.19,11.19,0,0,0-2.14,4.42,25.56,25.56,0,0,0-.69,6.32v3.15h-4.46a1.49,1.49,0,0,0-.76.19,1.43,1.43,0,0,0-.56.65,3.44,3.44,0,0,0-.27.94,8.54,8.54,0,0,0-.08,1.3,5.08,5.08,0,0,0,.35,2.19,1.4,1.4,0,0,0,1.31.85h4.46V53.32a1.28,1.28,0,0,0,.23.77,1.58,1.58,0,0,0,.7.51,4.22,4.22,0,0,0,1.09.26,15.84,15.84,0,0,0,3.18,0,4.2,4.2,0,0,0,1.09-.26,1.59,1.59,0,0,0,.7-.51,1.28,1.28,0,0,0,.24-.77V23.4h7.3a1.45,1.45,0,0,0,1.3-.83,4.63,4.63,0,0,0,.4-2.21,7.19,7.19,0,0,0-.1-1.31A3.39,3.39,0,0,0,253.62,18.1Z" style="fill:#1a9000"/><path d="M285.67,21.65a14.08,14.08,0,0,0-5.45-3.81,20.48,20.48,0,0,0-7.6-1.3,20,20,0,0,0-7.9,1.46A15.4,15.4,0,0,0,259,22.12a17.44,17.44,0,0,0-3.39,6.29,26.91,26.91,0,0,0-1.12,7.92,27.84,27.84,0,0,0,1.06,8,16.14,16.14,0,0,0,3.24,6,14.09,14.09,0,0,0,5.45,3.81,20.48,20.48,0,0,0,7.6,1.3A19.77,19.77,0,0,0,279.77,54a15.58,15.58,0,0,0,5.69-4.13,17.71,17.71,0,0,0,3.41-6.29A26.5,26.5,0,0,0,290,35.63a27.26,27.26,0,0,0-1.08-7.94A16.39,16.39,0,0,0,285.67,21.65ZM272.21,49.24a10.44,10.44,0,0,1-4.92-1,8.4,8.4,0,0,1-3.12-2.82,12.21,12.21,0,0,1-1.69-4.22A25.66,25.66,0,0,1,262,35.9a21.69,21.69,0,0,1,.63-5.36,12.33,12.33,0,0,1,1.89-4.18,8.57,8.57,0,0,1,3.2-2.69,10.59,10.59,0,0,1,4.68-1,10.43,10.43,0,0,1,4.92,1,8.19,8.19,0,0,1,3.1,2.83,12.71,12.71,0,0,1,1.67,4.24,25.51,25.51,0,0,1,.52,5.22,22.49,22.49,0,0,1-.61,5.4,11.83,11.83,0,0,1-1.87,4.16,8.56,8.56,0,0,1-3.22,2.68A10.61,10.61,0,0,1,272.21,49.24Z" style="fill:#1a9000"/><path d="M336.23,18.69a2.83,2.83,0,0,0-.16-.53,1.5,1.5,0,0,0-.42-.52,3,3,0,0,0-.92-.46,12.21,12.21,0,0,0-1.3-.36A11.11,11.11,0,0,0,332,16.6q-.66-.06-1.17-.06a9.13,9.13,0,0,0-2.32.3,7.8,7.8,0,0,0-2.34,1.1,15.29,15.29,0,0,0-2.44,2.12,24.3,24.3,0,0,0-1.94,2.34V18.7a1.38,1.38,0,0,0-.2-.75,1.66,1.66,0,0,0-.59-.53,2.66,2.66,0,0,0-1-.28,17.7,17.7,0,0,0-2.92,0,3,3,0,0,0-1,.27,1.42,1.42,0,0,0-.65.56,1.5,1.5,0,0,0-.17.72V53.32a1.37,1.37,0,0,0,.2.75,1.44,1.44,0,0,0,.7.53,4.26,4.26,0,0,0,1.09.26,13.21,13.21,0,0,0,1.59.08,13.66,13.66,0,0,0,1.63-.08,3.91,3.91,0,0,0,1.08-.26,1.62,1.62,0,0,0,.67-.51,1.28,1.28,0,0,0,.24-.77V30.68c.86-1.35,1.66-2.51,2.37-3.44a15.43,15.43,0,0,1,2.08-2.28,7,7,0,0,1,1.83-1.2,5.3,5.3,0,0,1,3.13-.21q.67.15,1.22.32c.36.11.68.22,1,.34a1.58,1.58,0,0,0,1.69-.1,1.72,1.72,0,0,0,.39-.66,3.92,3.92,0,0,0,.18-1q0-.59,0-1.45t0-1.42A5.38,5.38,0,0,0,336.23,18.69Z" style="fill:#004e9f"/><path d="M371.38,17.91a2,2,0,0,0-.66-.5,3.16,3.16,0,0,0-1.11-.27c-.42,0-1-.06-1.58-.06s-1.19,0-1.6.06a3.54,3.54,0,0,0-1.12.27,1.55,1.55,0,0,0-.7.54,1.36,1.36,0,0,0-.2.75v24a26.44,26.44,0,0,1-4.84,4.77,7.74,7.74,0,0,1-4.5,1.61,6.59,6.59,0,0,1-3-.66,5.84,5.84,0,0,1-2.13-1.87,8.69,8.69,0,0,1-1.28-3,21.1,21.1,0,0,1-.43-4.77V18.7a1.28,1.28,0,0,0-.24-.77,1.74,1.74,0,0,0-.68-.52,3.37,3.37,0,0,0-1.12-.27,20.94,20.94,0,0,0-3.16,0,3.57,3.57,0,0,0-1.14.27,1.55,1.55,0,0,0-.7.54,1.36,1.36,0,0,0-.2.75v21a28.31,28.31,0,0,0,.65,6.51A13.15,13.15,0,0,0,343.75,51a10.71,10.71,0,0,0,4,3.27,13.7,13.7,0,0,0,6,1.2,13,13,0,0,0,6-1.55A20.89,20.89,0,0,0,365,49.83v3.49a1.5,1.5,0,0,0,.17.72,1.34,1.34,0,0,0,.64.55,3.53,3.53,0,0,0,1,.27,13.37,13.37,0,0,0,2.93,0,3.8,3.8,0,0,0,1-.26,1.47,1.47,0,0,0,.67-.53,1.37,1.37,0,0,0,.2-.75V18.7A1.21,1.21,0,0,0,371.38,17.91Z" style="fill:#004e9f"/><circle cx="301.41" cy="50.15" r="5.59" style="fill:#1a9000"/></g></g></svg>