<?xml version="1.0" encoding="utf-8"?><!DOCTYPE svg PUBLIC "-//W3C//DTD SVG 1.1//EN" "http://www.w3.org/Graphics/SVG/1.1/DTD/svg11.dtd"><svg width="1076" height="1112" viewBox="0 0 1076 1112" xmlns="http://www.w3.org/2000/svg" xmlns:xlink="http://www.w3.org/1999/xlink"><svg viewBox="-5 -5 36.96 50" width="36.96" height="50" id="icon-add-object" xmlns="http://www.w3.org/2000/svg"><title>icon-add-object</title><g data-name="Слой 2"><g data-name="Слой 1" fill="#1a9000"><path d="M13.33 0l.3.05A13.68 13.68 0 0 0 0 13.74a19.56 19.56 0 0 0 2.79 8.79s8.45 14.26 9.34 15.62A21.66 21.66 0 0 0 13.48 40a21.69 21.69 0 0 0 1.35-1.85c.9-1.37 9.34-15.83 9.34-15.83A19.33 19.33 0 0 0 27 13.63 13.63 13.63 0 0 0 13.33 0zm.1 24.3a10.89 10.89 0 1 1 10.89-10.89A10.89 10.89 0 0 1 13.43 24.3z"/><path d="M13.48 4.51a8.9 8.9 0 1 0 8.9 8.9 8.91 8.91 0 0 0-8.9-8.9zm1.18 10.63v5h-3v-5H6.51v-3h5.17v-5h3v5H20v3z"/></g></g></svg><svg viewBox="-5 -5 70 70" width="70" height="70" id="icon-add-photo" x="37" y="50" xmlns="http://www.w3.org/2000/svg"><title>icon-add-photo</title><g data-name="Слой 2"><g data-name="Слой 1"><circle cx="30" cy="30" r="30" fill="#bcbec0"/><path fill="none" stroke="#fff" stroke-miterlimit="10" stroke-width="7.627" d="M30 48.7V11.3M11.3 30h37.4"/></g></g></svg><svg viewBox="-5 -5 34 54" width="34" height="54" id="icon-arrow-right" x="107" y="120" xmlns="http://www.w3.org/2000/svg"><title>icon-arrow-right</title><g data-name="Слой 2"><path fill="none" stroke="#231f20" stroke-linecap="round" stroke-linejoin="round" stroke-width="4" d="M2 42l20-20.26L2.51 2" data-name="Слой 1"/></g></svg><svg viewBox="-5 -5 50 50" width="50" height="50" id="icon-arrows-gray" x="141" y="174" xmlns="http://www.w3.org/2000/svg"><title>icon-arrows-gray</title><g data-name="Слой 2"><g data-name="Слой 1" fill="#a7a9ac"><path d="M12.29 16.28l4-4-8.58-8.57L11.43 0H0v11.43l3.71-3.71zm0 0M16.28 27.72l-4-4-8.57 8.56L0 28.57V40h11.43l-3.72-3.71zm0 0M27.72 23.72l-4 4 8.56 8.56L28.57 40H40V28.57l-3.71 3.71zm0 0M28.57 0l3.71 3.71-8.56 8.58 4 4 8.57-8.57L40 11.43V0zm0 0"/></g></g></svg><svg viewBox="-5 -5 50 50" width="50" height="50" id="icon-arrows-green" x="191" y="224" xmlns="http://www.w3.org/2000/svg"><title>icon-arrows-green</title><g data-name="Слой 2"><g data-name="Слой 1" fill="#1a9000"><path d="M12.29 16.28l4-4-8.58-8.57L11.43 0H0v11.43l3.71-3.71zm0 0M16.28 27.72l-4-4-8.57 8.56L0 28.57V40h11.43l-3.72-3.71zm0 0M27.72 23.72l-4 4 8.57 8.56L28.57 40H40V28.57l-3.71 3.71zm0 0M28.57 0l3.71 3.71-8.57 8.58 4 4 8.57-8.57L40 11.43V0zm0 0"/></g></g></svg><svg viewBox="-5 -5 50 50" width="50" height="50" id="icon-close" x="241" y="274" xmlns="http://www.w3.org/2000/svg"><title>icon-close</title><g data-name="Слой 2"><g data-name="Слой 1"><circle cx="20" cy="20" r="20" fill="#939598"/><path fill="#fff" d="M7.763 29.09L29.1 7.76l3.16 3.16-21.337 21.33z"/><path fill="#fff" d="M7.764 10.914l3.161-3.161 21.333 21.333-3.16 3.161z"/></g></g></svg><svg viewBox="-5 -5 50 50.01" width="50" height="50.01" id="icon-cog-gray" x="291" y="324" xmlns="http://www.w3.org/2000/svg"><title>icon-cog-gray</title><g data-name="Слой 2"><g data-name="Слой 1" fill="#a7a9ac"><path d="M8.56 36a.63.63 0 0 1-.89 0L4 32.33a.64.64 0 0 1 0-.89l2-2-.33-.54a16.57 16.57 0 0 1-2.08-5.06l-.15-.62H.62a.62.62 0 0 1-.62-.64v-5.16a.62.62 0 0 1 .62-.63h2.87l.15-.62a16.51 16.51 0 0 1 2.08-5l.33-.54-2-2a.64.64 0 0 1 0-.89L7.67 4a.62.62 0 0 1 .89 0l2 2 .54-.33a16.87 16.87 0 0 1 5.06-2.1l.62-.14V.63a.63.63 0 0 1 .64-.63h5.15a.63.63 0 0 1 .63.63V3.5l.62.14a17 17 0 0 1 5.06 2.1l.53.33 2-2a.62.62 0 0 1 .89 0L36 7.68a.62.62 0 0 1 0 .89l-2 2 .33.54a16.53 16.53 0 0 1 2.1 5l.14.62h2.87a.63.63 0 0 1 .63.63v5.15a.63.63 0 0 1-.63.63H36.5l-.14.62a16.59 16.59 0 0 1-2.1 5.06l-.33.54 2 2a.62.62 0 0 1 0 .89L32.32 36a.63.63 0 0 1-.89 0l-2-2-.53.33a16.68 16.68 0 0 1-5.06 2.08l-.62.15v2.87a.63.63 0 0 1-.63.63h-5.17a.63.63 0 0 1-.63-.63v-2.92l-.62-.15a16.57 16.57 0 0 1-5.06-2.08l-.54-.33zM31.2 20A11.2 11.2 0 1 0 20 31.21 11.21 11.21 0 0 0 31.2 20z"/><path d="M12 20a8 8 0 1 1 8 8 8 8 0 0 1-8-8zm8-6.41A6.4 6.4 0 1 0 26.4 20a6.4 6.4 0 0 0-6.4-6.4z"/><path d="M20 10.4a9.6 9.6 0 1 0 9.6 9.6 9.62 9.62 0 0 0-9.6-9.6zM8.79 20A11.2 11.2 0 1 1 20 31.21 11.22 11.22 0 0 1 8.79 20z"/><path d="M39.37 16.8H36.5l-.14-.62a16.53 16.53 0 0 0-2.1-5l-.33-.54 2-2a.62.62 0 0 0 0-.89L32.32 4a.62.62 0 0 0-.89 0l-2 2-.53-.33a17 17 0 0 0-5.06-2.1l-.64-.07V.63a.63.63 0 0 0-.62-.63h-5.16a.63.63 0 0 0-.63.63V3.5l-.62.14a16.87 16.87 0 0 0-5.06 2.1l-.54.33-2-2a.62.62 0 0 0-.89 0L4 7.68a.64.64 0 0 0 0 .89l2 2-.33.54a16.51 16.51 0 0 0-2.08 5l-.15.62H.62a.62.62 0 0 0-.62.63v5.15a.62.62 0 0 0 .62.63h2.87l.15.62a16.57 16.57 0 0 0 2.08 5.06l.33.54-2 2a.64.64 0 0 0 0 .89L7.67 36a.63.63 0 0 0 .89 0l2-2 .54.33a16.57 16.57 0 0 0 5.06 2.08l.62.15v2.87a.63.63 0 0 0 .63.63h5.15a.63.63 0 0 0 .63-.63v-2.92l.62-.15a16.68 16.68 0 0 0 5.06-2.08l.53-.33 2 2a.63.63 0 0 0 .89 0L36 32.33a.62.62 0 0 0 0-.89l-2-2 .33-.54a16.59 16.59 0 0 0 2.1-5.06l.14-.62h2.87a.63.63 0 0 0 .63-.63v-5.17a.63.63 0 0 0-.7-.62zM20 31.21A11.2 11.2 0 1 1 31.2 20 11.22 11.22 0 0 1 20 31.21z"/><path d="M12 20a8 8 0 1 1 8 8 8 8 0 0 1-8-8zm8-6.41A6.4 6.4 0 1 0 26.4 20a6.4 6.4 0 0 0-6.4-6.4z"/></g></g></svg><svg viewBox="-5 -5 50 50.01" width="50" height="50.01" id="icon-cog-green" x="341" y="375" xmlns="http://www.w3.org/2000/svg"><title>icon-cog-green</title><g data-name="Слой 2"><g data-name="Слой 1" fill="#1a9000"><path d="M8.56 36a.63.63 0 0 1-.89 0L4 32.33a.64.64 0 0 1 0-.89l2-2-.33-.54a16.57 16.57 0 0 1-2.08-5.06l-.15-.62H.62a.62.62 0 0 1-.62-.64v-5.16a.62.62 0 0 1 .62-.63h2.87l.15-.62a16.51 16.51 0 0 1 2.08-5l.33-.54-2-2a.64.64 0 0 1 0-.89L7.67 4a.62.62 0 0 1 .89 0l2 2 .54-.33a16.87 16.87 0 0 1 5.06-2.1l.62-.14V.63a.63.63 0 0 1 .64-.63h5.15a.63.63 0 0 1 .63.63V3.5l.62.14a17 17 0 0 1 5.06 2.1l.53.33 2-2a.62.62 0 0 1 .89 0L36 7.68a.62.62 0 0 1 0 .89l-2 2 .33.54a16.53 16.53 0 0 1 2.1 5l.14.62h2.87a.63.63 0 0 1 .63.63v5.15a.63.63 0 0 1-.63.63H36.5l-.14.62a16.59 16.59 0 0 1-2.1 5.06l-.33.54 2 2a.62.62 0 0 1 0 .89L32.32 36a.63.63 0 0 1-.89 0l-2-2-.53.33a16.68 16.68 0 0 1-5.06 2.08l-.62.15v2.87a.63.63 0 0 1-.63.63h-5.17a.63.63 0 0 1-.63-.63v-2.92l-.62-.15a16.57 16.57 0 0 1-5.06-2.08l-.54-.33zM31.2 20A11.2 11.2 0 1 0 20 31.21 11.21 11.21 0 0 0 31.2 20z"/><path d="M12 20a8 8 0 1 1 8 8 8 8 0 0 1-8-8zm8-6.41A6.4 6.4 0 1 0 26.4 20a6.4 6.4 0 0 0-6.4-6.4z"/><path d="M20 10.4a9.6 9.6 0 1 0 9.6 9.6 9.62 9.62 0 0 0-9.6-9.6zM8.79 20A11.2 11.2 0 1 1 20 31.21 11.22 11.22 0 0 1 8.79 20z"/><path d="M39.37 16.8H36.5l-.14-.62a16.53 16.53 0 0 0-2.1-5l-.33-.54 2-2a.62.62 0 0 0 0-.89L32.32 4a.62.62 0 0 0-.89 0l-2 2-.53-.33a17 17 0 0 0-5.06-2.1l-.64-.07V.63a.63.63 0 0 0-.62-.63h-5.16a.63.63 0 0 0-.63.63V3.5l-.62.14a16.87 16.87 0 0 0-5.06 2.1l-.54.33-2-2a.62.62 0 0 0-.89 0L4 7.68a.64.64 0 0 0 0 .89l2 2-.33.54a16.5 16.5 0 0 0-2.08 5l-.15.62H.62a.62.62 0 0 0-.62.63v5.15a.62.62 0 0 0 .62.63h2.87l.15.62a16.56 16.56 0 0 0 2.08 5.06l.33.54-2 2a.64.64 0 0 0 0 .89L7.67 36a.63.63 0 0 0 .89 0l2-2 .54.33a16.57 16.57 0 0 0 5.06 2.08l.62.15v2.87a.63.63 0 0 0 .63.63h5.15a.63.63 0 0 0 .63-.63v-2.92l.62-.15a16.68 16.68 0 0 0 5.06-2.08l.53-.33 2 2a.63.63 0 0 0 .89 0L36 32.33a.62.62 0 0 0 0-.89l-2-2 .33-.54a16.59 16.59 0 0 0 2.1-5.06l.14-.62h2.87a.63.63 0 0 0 .63-.63v-5.17a.63.63 0 0 0-.7-.62zM20 31.21A11.2 11.2 0 1 1 31.2 20 11.22 11.22 0 0 1 20 31.21z"/><path d="M12 20a8 8 0 1 1 8 8 8 8 0 0 1-8-8zm8-6.41A6.4 6.4 0 1 0 26.4 20a6.4 6.4 0 0 0-6.4-6.4z"/></g></g></svg><svg viewBox="-5 -5 38 38" width="38" height="38" id="icon-date" x="391" y="426" xmlns="http://www.w3.org/2000/svg"><title>icon-date</title><g data-name="Слой 2"><g data-name="Слой 1"><circle cx="14" cy="14" r="14" fill="#1a9000"/><path d="M21.09 17.31l-1.63 2.34-1.15-.94a.29.29 0 1 0-.37.45l1.39 1.14a.29.29 0 0 0 .18.07.28.28 0 0 0 .2-.12l1.81-2.6a.29.29 0 0 0-.48-.33zm0 0" fill="#fff"/><path d="M21.33 15.58V7a.29.29 0 0 0-.33-.29h-1.41v-.87a.29.29 0 0 0-.29-.29h-2a.29.29 0 0 0-.29.29v.87h-6.4v-.87a.29.29 0 0 0-.29-.29h-2a.29.29 0 0 0-.32.29v.87H6.5a.29.29 0 0 0-.29.29v14.84a.29.29 0 0 0 .29.29h11.08a3.78 3.78 0 1 0 3.75-6.55zm-3.78-9.45H19v1.74h-1.45zm-9 0H10v1.74H8.53zM6.79 7.29H8v.87a.29.29 0 0 0 .29.29h2a.29.29 0 0 0 .29-.29v-.87H17v.87a.29.29 0 0 0 .29.29h2a.29.29 0 0 0 .29-.29v-.87h1.16v2.33h-14zm0 14.25V10.2h14v5.13h-1.45v-3.67H8.25v8.43H16v.08c0 .07 0 .14.08.21l.05.11.11.22.05.09.14.22.06.08.16.21.07.07.14.16zm11.14-6h-.09l-.16.09-.14.08-.13.09-.15.11-.12.09-.15.13-.1.1-.15.17-.06.07v-1.61h2v.4a3.87 3.87 0 0 0-.77.28zm-2 2.29v.1c0 .08 0 .17-.07.26s0 .13 0 .2v.17a3.75 3.75 0 0 0 0 .38V19.53h-1.8v-2h2c0 .11-.08.21-.12.33zm-7.15-.35h2v2h-2zm0-2.62h2v2h-2zm9.89-.58h-2v-2h2zm-2.62 0h-2v-2h2zm0 2.62h-2v-2h2zm-4.65-2h2v2h-2zm2-.58h-2v-2h2zm-2.62 0h-2v-2h2zm.58 3.2h2v2h-2zm8.15 4.65a3.18 3.18 0 0 1-1.78-.54l-.28-.21-.09-.08-.17-.16-.1-.11-.09-.22v-.11a3 3 0 0 1-.18-.29v-.07c0-.08-.08-.17-.12-.25v-.12l-.07-.23v-.05a3.33 3.33 0 0 1-.07-.38 3 3 0 0 1 0-.39 3.18 3.18 0 0 1 0-.33v-.3c0-.1 0-.19.08-.29 0-.09.06-.18.1-.27l.12-.24v-.06l.16-.25L17 17l.16-.2.06-.07.18-.17.07-.06.22-.17a3.17 3.17 0 0 1 1.28-.52 3.22 3.22 0 0 1 .53 0h.78l.3.08.3.12a3.2 3.2 0 0 1-1.32 6.11zm0 0" fill="#fff"/></g></g></svg><svg viewBox="-5 -5 40 40.02" width="40" height="40.02" id="icon-fb" x="429" y="464" xmlns="http://www.w3.org/2000/svg"><defs><linearGradient id="ja" x1="15" y1="1.93" x2="15" y2="27.36" gradientUnits="userSpaceOnUse"><stop offset="0" stop-color="#4e6abd"/><stop offset="1" stop-color="#3e51a0"/></linearGradient></defs><title>icon-fb</title><g data-name="Слой 2"><g data-name="Слой 1" fill-rule="evenodd"><path d="M6.6 0h16.8A6.63 6.63 0 0 1 30 6.6v16.8a6.63 6.63 0 0 1-6.6 6.6H6.6A6.62 6.62 0 0 1 0 23.4V6.6A6.62 6.62 0 0 1 6.6 0z" fill="url(#ja)"/><path d="M16.44 11.61v-1.45a.76.76 0 0 1 .8-.86h2V6.2h-2.8a3.51 3.51 0 0 0-3.76 3.8v1.63h-1.8v3.61h1.82v9h3.61v-9H19l.12-1.42.21-2.19z" fill="#fefefe"/></g></g></svg><svg viewBox="-5 -5 38 38" width="38" height="38" id="icon-info" x="469" y="505" xmlns="http://www.w3.org/2000/svg"><title>icon-info</title><g data-name="Слой 2"><g data-name="Слой 1" fill="#1a9000"><path d="M14 0a14 14 0 1 0 14 14A14 14 0 0 0 14 0zm2.92 21.7c-.72.28-1.3.5-1.72.65a4.48 4.48 0 0 1-1.49.23 3 3 0 0 1-2-.64 2 2 0 0 1-.72-1.62 6.14 6.14 0 0 1 .05-.78 9.11 9.11 0 0 1 .17-.9l.9-3.19c.08-.31.15-.6.2-.86a4 4 0 0 0 .08-.75 1.15 1.15 0 0 0-.25-.85 1.41 1.41 0 0 0-1-.24 2.63 2.63 0 0 0-.72.1l-.62.21.24-1c.59-.24 1.16-.45 1.69-.62a5 5 0 0 1 1.53-.26 2.91 2.91 0 0 1 2 .63 2.08 2.08 0 0 1 .74 1.65v.73a5 5 0 0 1-.18 1l-.9 3.18c-.08.25-.14.55-.2.87a4.59 4.59 0 0 0-.09.74 1.07 1.07 0 0 0 .28.86 1.57 1.57 0 0 0 1 .23 2.85 2.85 0 0 0 .74-.12 4.25 4.25 0 0 0 .6-.2zm-.16-12.89a2.26 2.26 0 0 1-3 0 1.87 1.87 0 0 1-.63-1.42 1.89 1.89 0 0 1 .6-1.39 2.26 2.26 0 0 1 3 0 1.89 1.89 0 0 1 .63 1.42 1.87 1.87 0 0 1-.63 1.42zm0 0"/><path d="M14 0a14 14 0 1 0 14 14A14 14 0 0 0 14 0zm2.92 21.7c-.72.28-1.3.5-1.72.65a4.48 4.48 0 0 1-1.49.23 3 3 0 0 1-2-.64 2 2 0 0 1-.72-1.62 6.14 6.14 0 0 1 .05-.78 9.11 9.11 0 0 1 .17-.9l.9-3.19c.08-.31.15-.6.2-.86a4 4 0 0 0 .08-.75 1.15 1.15 0 0 0-.25-.85 1.41 1.41 0 0 0-1-.24 2.63 2.63 0 0 0-.72.1l-.62.21.24-1c.59-.24 1.16-.45 1.69-.62a5 5 0 0 1 1.53-.26 2.91 2.91 0 0 1 2 .63 2.08 2.08 0 0 1 .74 1.65v.73a5 5 0 0 1-.18 1l-.9 3.18c-.08.25-.14.55-.2.87a4.59 4.59 0 0 0-.09.74 1.07 1.07 0 0 0 .28.86 1.57 1.57 0 0 0 1 .23 2.85 2.85 0 0 0 .74-.12 4.25 4.25 0 0 0 .6-.2zm-.16-12.89a2.26 2.26 0 0 1-3 0 1.87 1.87 0 0 1-.63-1.42 1.89 1.89 0 0 1 .6-1.39 2.26 2.26 0 0 1 3 0 1.89 1.89 0 0 1 .63 1.42 1.87 1.87 0 0 1-.63 1.42zm0 0"/></g></g></svg><svg viewBox="-5 -5 60.05 60.05" width="60.05" height="60.05" id="icon-login" x="507" y="543" xmlns="http://www.w3.org/2000/svg"><defs><clipPath id="la"><path fill="none" d="M0 .05h50v50.2H0z"/></clipPath></defs><title>icon-login</title><g data-name="Слой 2"><g clip-path="url(#la)" data-name="Слой 1"><path d="M25 0a25 25 0 1 0 25 25A25 25 0 0 0 25 0zm.08 36.83H14.26c0-7.83 6.86-7.83 8.39-9.83l.17-.93a7.47 7.47 0 0 1-3.65-6.76c0-4 2.62-7.3 5.85-7.3s5.85 3.27 5.85 7.3A7.5 7.5 0 0 1 27.28 26l.2 1.06c1.67 1.94 8.31 2.07 8.31 9.76zm0 0" fill="#1a9000"/></g></g></svg><svg viewBox="-5 -5 38 38" width="38" height="38" id="icon-loup" x="568" y="604" xmlns="http://www.w3.org/2000/svg"><title>icon-loup</title><g data-name="Слой 2"><g data-name="Слой 1"><circle cx="14" cy="14" r="14" fill="#1a9000"/><path d="M23 20.45l-4.39-4.35a8.38 8.38 0 0 1-2.52 2.52L20.45 23A1.78 1.78 0 0 0 23 20.45zm0 0M18.74 11.63a7.12 7.12 0 1 0-7.12 7.12 7.12 7.12 0 0 0 7.12-7.12zM11.63 17A5.34 5.34 0 1 1 17 11.63 5.34 5.34 0 0 1 11.63 17zm0 0" fill="#fff"/><path d="M7.48 11.63h1.18a3 3 0 0 1 3-3V7.48a4.16 4.16 0 0 0-4.15 4.15zm0 0" fill="#fff"/></g></g></svg><svg viewBox="-5 -5 34.19 34.19" width="34.19" height="34.19" id="icon-loupe-blue" x="606" y="642" xmlns="http://www.w3.org/2000/svg"><title>icon-loupe-blue</title><g data-name="Слой 2"><path d="M16.16 2.77a9.47 9.47 0 1 0-1.3 14.46 2 2 0 0 0 .54 1l5.37 5.38a2 2 0 0 0 2.83-2.83l-5.37-5.38a2 2 0 0 0-1-.54 9.48 9.48 0 0 0-1.07-12.09zm-1.7 11.69a7.07 7.07 0 1 1 0-10 7.08 7.08 0 0 1 0 10zm0 0" fill="#004e9f" data-name="Слой 1"/></g></svg><svg viewBox="-5 -5 38 38" width="38" height="38" id="icon-new" x="641" y="677" xmlns="http://www.w3.org/2000/svg"><title>icon-new</title><g data-name="Слой 2"><g data-name="Слой 1"><path d="M14 0a14 14 0 1 0 14 14A14 14 0 0 0 14 0z" fill="#1a9000"/><path d="M5.6 17.37V11.3h.86l1.94 3.07a17.15 17.15 0 0 1 1.09 2c-.07-.81-.09-1.55-.09-2.49V11.3h.74v6.07h-.77l-1.93-3.08a19.27 19.27 0 0 1-1.13-2c0 .77.06 1.49.06 2.5v2.59zM14.67 14.52h-2.36v2.19h2.63v.66h-3.41V11.3h3.27v.7h-2.49v1.92h2.36zM17 17.37l-1.51-6.07h.83l.68 3.07c.18.76.34 1.51.45 2.1.1-.6.29-1.32.5-2.11l.81-3.06h.82l.74 3.08c.17.72.33 1.44.42 2.08.13-.67.3-1.34.49-2.1l.8-3.06h.8l-1.72 6.07h-.82l-.77-3.16a18.3 18.3 0 0 1-.4-2 18.9 18.9 0 0 1-.47 2l-.86 3.16z" fill="#fff"/></g></g></svg><svg width="39" height="39" viewBox="-5 -5 104 104" id="icon-odn" x="679" y="715" xmlns="http://www.w3.org/2000/svg"><g fill="#e77924"><path d="M47.051 37.59c5.247-.017 9.426-4.23 9.407-9.489-.021-5.259-4.207-9.448-9.456-9.452-5.293-.005-9.52 4.259-9.479 9.566.039 5.239 4.265 9.397 9.528 9.375z"/><path d="M89 0H5a5 5 0 0 0-5 5v84a5 5 0 0 0 5 5h84a5 5 0 0 0 5-5V5a5 5 0 0 0-5-5zM47.08 8.766c10.699.027 19.289 8.781 19.236 19.602-.057 10.57-8.787 19.138-19.469 19.102-10.576-.036-19.248-8.803-19.188-19.396.063-10.709 8.741-19.34 19.421-19.308zm21.673 46.306c-2.366 2.431-5.214 4.187-8.378 5.416-2.991 1.156-6.268 1.742-9.512 2.13.49.534.721.793 1.025 1.102 4.404 4.425 8.826 8.832 13.215 13.27 1.494 1.511 1.81 3.386.985 5.145-.901 1.925-2.916 3.188-4.894 3.052-1.252-.088-2.228-.711-3.094-1.582-3.324-3.345-6.711-6.627-9.965-10.031-.947-.992-1.403-.807-2.241.056a664.352 664.352 0 0 1-10.155 10.2c-1.535 1.514-3.36 1.785-5.143.922-1.892-.917-3.094-2.848-3.001-4.791.064-1.312.71-2.314 1.611-3.214 4.356-4.351 8.702-8.713 13.05-13.072.289-.288.557-.597.976-1.045-5.929-.619-11.275-2.077-15.85-5.657-.567-.445-1.154-.875-1.674-1.373-2.002-1.924-2.203-4.125-.618-6.396 1.354-1.942 3.632-2.464 5.997-1.349.459.215.895.486 1.313.775 8.528 5.86 20.245 6.023 28.806.266.847-.647 1.754-1.183 2.806-1.449 2.045-.525 3.947.224 5.045 2.012 1.257 2.037 1.24 4.029-.304 5.613z"/></g></svg><svg viewBox="-5 -5 50 50" width="50" height="50" id="icon-share" x="718" y="754" xmlns="http://www.w3.org/2000/svg"><title>icon-share</title><g data-name="Слой 2"><path d="M35.64 0a4.37 4.37 0 0 0-4.37 4.36 4.31 4.31 0 0 0 .53 2.08l-7.15 7.15a5.77 5.77 0 0 0-7.12 0L11.95 8a2.83 2.83 0 0 0 .42-1.47A3 3 0 1 0 10.92 9l5.58 5.58a5.77 5.77 0 0 0 0 7.12L7.29 31a4.35 4.35 0 1 0 1.44 3.23 4.32 4.32 0 0 0-.53-2.13l9.33-9.33a5.76 5.76 0 0 0 2.84 1.17v7.39a4.35 4.35 0 1 0 1.45 0v-7.39a5.84 5.84 0 0 0 2.84-1.17l5.57 5.57a3 3 0 0 0-.41 1.47 2.91 2.91 0 1 0 2.91-2.9 2.82 2.82 0 0 0-1.47.41l-5.58-5.58a5.77 5.77 0 0 0 0-7.12l7-7A4.36 4.36 0 1 0 35.64 0z" fill="#1a9000" data-name="Слой 1"/></g></svg><svg viewBox="-5 -5 33.44 32.29" width="33.44" height="32.29" id="icon-star-gray" x="768" y="804" xmlns="http://www.w3.org/2000/svg"><title>icon-star-gray</title><g data-name="Слой 2"><path fill="#fff" stroke="#6d6e71" stroke-miterlimit="10" stroke-width=".535" d="M11.72.6l3.44 6.98 7.7 1.12-5.57 5.43 1.32 7.67-6.89-3.62-6.89 3.62 1.32-7.67L.57 8.7l7.71-1.12L11.72.6z" data-name="Слой 1"/></g></svg><svg viewBox="-5 -5 33.47 32.32" width="33.47" height="32.32" id="icon-star-yellow" x="802" y="837" xmlns="http://www.w3.org/2000/svg"><title>icon-star-yellow</title><g data-name="Слой 2"><path fill="#ffde17" stroke="#f7941e" stroke-miterlimit="10" stroke-width=".551" d="M11.74.62l3.44 6.98 7.7 1.12-5.57 5.43 1.31 7.67-6.88-3.62-6.89 3.62 1.31-7.67L.59 8.72l7.7-1.12L11.74.62z" data-name="Слой 1"/></g></svg><svg viewBox="-5 -5 40 40" width="40" height="40" id="icon-vk" x="836" y="870" xmlns="http://www.w3.org/2000/svg"><title>icon-vk</title><g data-name="Слой 2"><g data-name="Слой 1"><path d="M4.62 0h20.76A4.62 4.62 0 0 1 30 4.62v20.76A4.62 4.62 0 0 1 25.38 30H4.62A4.62 4.62 0 0 1 0 25.38V4.62A4.62 4.62 0 0 1 4.62 0z" fill="#4d75a3" fill-rule="evenodd"/><path d="M21.8 15.25s2.59-3.66 2.85-4.86c.09-.43-.1-.67-.55-.67h-2.25a.82.82 0 0 0-.86.55 20.37 20.37 0 0 1-2.7 4.22c-.47.53-.72.69-1 .69S17 15 17 14.53v-4.17c0-.58-.07-.76-.55-.76h-3.6a.39.39 0 0 0-.45.38c0 .55.84.67.84 2.16v3.07c0 .62 0 .86-.33.86-.77 0-2.61-2.66-3.64-5.68-.21-.62-.43-.79-1-.79H6a.54.54 0 0 0-.57.55c0 .6.7 3.38 3.47 7.11 1.85 2.51 4.29 3.86 6.49 3.86 1.34 0 1.67-.22 1.67-.79v-1.92c0-.48.19-.69.46-.69s.85.1 2.13 1.36c1.51 1.44 1.61 2 2.44 2h2.52c.26 0 .5-.12.5-.55s-.74-1.58-1.87-2.78c-.46-.62-1.22-1.29-1.46-1.6s-.22-.52.02-.9z" fill="#fff"/></g></g></svg><svg viewBox="-5 -5 50 50" width="50" height="50" id="icon-zone-gray" x="876" y="910" xmlns="http://www.w3.org/2000/svg"><title>icon-zone-gray</title><g data-name="Слой 2"><g data-name="Слой 1" fill="#a7a9ac"><path d="M0 39.9v-1.54l5.44-8.63H.23v-1.6h7.31v1.45L2.07 38.3h5.47v1.6zM16.78 38.74A4.25 4.25 0 0 1 13.67 40a4.21 4.21 0 0 1-3.09-1.26C9.42 37.59 9.44 36.28 9.44 34s0-3.57 1.14-4.73A4.21 4.21 0 0 1 13.67 28a4.25 4.25 0 0 1 3.11 1.26c1.16 1.16 1.12 2.46 1.12 4.73s.04 3.6-1.12 4.75zm-1.36-8.38a2.47 2.47 0 0 0-3.5 0c-.58.63-.69 1.29-.69 3.65s.12 3 .69 3.65a2.47 2.47 0 0 0 3.5 0c.58-.63.69-1.29.69-3.65S16 31 15.42 30.36zM27.77 39.9l-5.44-8.28v8.28h-1.79V28.13h1.64l5.44 8.27v-8.27h1.79V39.9zM32.48 39.9V28.13H40v1.6h-5.74v3.44h4.89v1.59h-4.89v3.54H40v1.6zM21.45 9.36l-.72 2a.81.81 0 0 1 .1.38.82.82 0 1 1-1.15-.74l.72-2a2.78 2.78 0 0 0-.4 0 2.85 2.85 0 1 0 1.45.41z"/><circle cx="13.11" cy="15.41" r=".82"/><path d="M25.52 11.77a2 2 0 0 1 1.36-1.88 7.18 7.18 0 0 0-4-4.65L21.82 8.3a3.71 3.71 0 1 1-1-.39l1.08-3a7.12 7.12 0 0 0-8.77 8.71h.07a1.83 1.83 0 0 1 1.48 2.91 7.13 7.13 0 0 0 12.25-2.83 2 2 0 0 1-1.41-1.93z"/><path d="M24.46.88l-1.18 3.31A8.28 8.28 0 0 1 28 9.85a2 2 0 0 1 0 3.85 8.25 8.25 0 0 1-14.29 3.45 1.81 1.81 0 0 1-.57.1A1.83 1.83 0 0 1 12 14 8.24 8.24 0 0 1 22.23 3.82L23.41.51a11.8 11.8 0 1 0 1 .37z"/><circle cx="27.6" cy="11.77" r="1.03"/></g></g></svg><svg viewBox="-5 -5 50 50" width="50" height="50" id="icon-zone-green" x="926" y="960" xmlns="http://www.w3.org/2000/svg"><title>icon-zone-green</title><g data-name="Слой 2"><g data-name="Слой 1" fill="#1a9000"><path d="M0 39.9v-1.54l5.44-8.63H.23v-1.6h7.31v1.45L2.07 38.3h5.47v1.6zM16.78 38.74A4.25 4.25 0 0 1 13.67 40a4.21 4.21 0 0 1-3.09-1.26C9.42 37.59 9.44 36.28 9.44 34s0-3.57 1.14-4.73A4.21 4.21 0 0 1 13.67 28a4.25 4.25 0 0 1 3.11 1.26c1.16 1.16 1.12 2.46 1.12 4.73s.04 3.6-1.12 4.75zm-1.36-8.38a2.47 2.47 0 0 0-3.5 0c-.58.63-.69 1.29-.69 3.65s.12 3 .69 3.65a2.47 2.47 0 0 0 3.5 0c.58-.63.69-1.29.69-3.65S16 31 15.42 30.36zM27.77 39.9l-5.44-8.28v8.28h-1.79V28.13h1.64l5.44 8.27v-8.27h1.79V39.9zM32.48 39.9V28.13H40v1.6h-5.74v3.44h4.89v1.59h-4.89v3.54H40v1.6z"/><path d="M0 39.9v-1.54l5.44-8.63H.23v-1.6h7.31v1.45L2.07 38.3h5.47v1.6zM16.78 38.74A4.25 4.25 0 0 1 13.67 40a4.21 4.21 0 0 1-3.09-1.26C9.42 37.59 9.44 36.28 9.44 34s0-3.57 1.14-4.73A4.21 4.21 0 0 1 13.67 28a4.25 4.25 0 0 1 3.11 1.26c1.16 1.16 1.12 2.46 1.12 4.73s.04 3.6-1.12 4.75zm-1.36-8.38a2.47 2.47 0 0 0-3.5 0c-.58.63-.69 1.29-.69 3.65s.12 3 .69 3.65a2.47 2.47 0 0 0 3.5 0c.58-.63.69-1.29.69-3.65S16 31 15.42 30.36zM27.77 39.9l-5.44-8.28v8.28h-1.79V28.13h1.64l5.44 8.27v-8.27h1.79V39.9zM32.48 39.9V28.13H40v1.6h-5.74v3.44h4.89v1.59h-4.89v3.54H40v1.6zM21.45 9.36l-.72 2a.8.8 0 0 1 .1.38.82.82 0 1 1-1.15-.74l.72-2a2.78 2.78 0 0 0-.4 0 2.85 2.85 0 1 0 1.45.41z"/><circle cx="13.11" cy="15.41" r=".82"/><path d="M25.52 11.77a2 2 0 0 1 1.36-1.88 7.17 7.17 0 0 0-4-4.65L21.82 8.3a3.71 3.71 0 1 1-1-.39l1.08-3a7.12 7.12 0 0 0-8.77 8.71h.07a1.83 1.83 0 0 1 1.48 2.91 7.13 7.13 0 0 0 12.25-2.83 2 2 0 0 1-1.41-1.93z"/><path d="M24.46.88l-1.18 3.31A8.28 8.28 0 0 1 28 9.85a2 2 0 0 1 0 3.85 8.25 8.25 0 0 1-14.29 3.45 1.81 1.81 0 0 1-.57.1A1.83 1.83 0 0 1 12 14 8.24 8.24 0 0 1 22.23 3.82L23.41.51a11.8 11.8 0 1 0 1 .37z"/><circle cx="27.6" cy="11.77" r="1.03"/></g></g></svg><svg viewBox="-5 -5 50 50.3" width="50" height="50.3" id="icon-zoom-gray" x="976" y="1010" xmlns="http://www.w3.org/2000/svg"><title>icon-zoom-gray</title><g data-name="Слой 2"><g data-name="Слой 1" fill="#a7a9ac"><path d="M0 40.21v-1.48l5.23-8.3h-5v-1.54h7v1.4L2 38.66h5.25v1.54zM16.13 39.09a4.09 4.09 0 0 1-3 1.21 4 4 0 0 1-3-1.21c-1.11-1.11-1.1-2.37-1.1-4.55s0-3.43 1.1-4.55a4 4 0 0 1 3-1.21 4.09 4.09 0 0 1 3 1.21c1.11 1.11 1.08 2.37 1.08 4.55s.03 3.46-1.08 4.55zM14.83 31a2.38 2.38 0 0 0-3.37 0c-.56.6-.67 1.24-.67 3.51s.11 2.91.67 3.51a2.38 2.38 0 0 0 3.37 0c.56-.6.67-1.24.67-3.51s-.12-2.87-.67-3.51zM26.4 39.09a4.28 4.28 0 0 1-6 0c-1.11-1.11-1.1-2.37-1.1-4.55s0-3.43 1.1-4.55a4.28 4.28 0 0 1 6 0c1.11 1.11 1.08 2.37 1.08 4.55s.03 3.46-1.08 4.55zM25.09 31a2.38 2.38 0 0 0-3.37 0c-.56.6-.67 1.24-.67 3.51s.11 2.91.67 3.51a2.38 2.38 0 0 0 3.37 0c.56-.6.67-1.24.67-3.51s-.11-2.87-.67-3.51zM38.28 40.21v-7.57l-2.61 5.52H34.4l-2.67-5.52v7.57H30V28.89h1.72l3.31 7 3.24-7H40v11.32zM20.13 6c-.32-.43-.81-1.29-.28-2a4.12 4.12 0 0 0 .59-3.8.36.36 0 0 0-.68.26 3.39 3.39 0 0 1-.48 3.1 2.14 2.14 0 0 0 0 2.45 6.46 6.46 0 0 0-5.74 6.41v7.27a6.45 6.45 0 1 0 12.91 0v-7.25A6.45 6.45 0 0 0 20.13 6zm.59 5.79a.73.73 0 0 1-1.47 0v-3.7a.73.73 0 1 1 1.47 0z"/></g></g></svg><svg viewBox="-5 -5 50 50.3" width="50" height="50.3" id="icon-zoom-green" x="1026" y="1061" xmlns="http://www.w3.org/2000/svg"><title>icon-zoom-green</title><g data-name="Слой 2"><g data-name="Слой 1" fill="#1a9000"><path d="M0 40.21v-1.48l5.23-8.3h-5v-1.54h7v1.4L2 38.66h5.25v1.54zM16.13 39.09a4.09 4.09 0 0 1-3 1.21 4 4 0 0 1-3-1.21c-1.11-1.11-1.1-2.37-1.1-4.55s0-3.43 1.1-4.55a4 4 0 0 1 3-1.21 4.09 4.09 0 0 1 3 1.21c1.11 1.11 1.08 2.37 1.08 4.55s.03 3.46-1.08 4.55zM14.83 31a2.38 2.38 0 0 0-3.37 0c-.56.6-.67 1.24-.67 3.51s.11 2.91.67 3.51a2.38 2.38 0 0 0 3.37 0c.56-.6.67-1.24.67-3.51s-.12-2.87-.67-3.51zM26.4 39.09a4.28 4.28 0 0 1-6 0c-1.11-1.11-1.1-2.37-1.1-4.55s0-3.43 1.1-4.55a4.28 4.28 0 0 1 6 0c1.11 1.11 1.08 2.37 1.08 4.55s.03 3.46-1.08 4.55zM25.09 31a2.38 2.38 0 0 0-3.37 0c-.56.6-.67 1.24-.67 3.51s.11 2.91.67 3.51a2.38 2.38 0 0 0 3.37 0c.56-.6.67-1.24.67-3.51s-.11-2.87-.67-3.51zM38.28 40.21v-7.57l-2.61 5.52H34.4l-2.67-5.52v7.57H30V28.89h1.72l3.31 7 3.24-7H40v11.32z"/><path d="M0 40.21v-1.48l5.23-8.3h-5v-1.54h7v1.4L2 38.66h5.25v1.54zM16.13 39.09a4.09 4.09 0 0 1-3 1.21 4 4 0 0 1-3-1.21c-1.11-1.11-1.1-2.37-1.1-4.55s0-3.43 1.1-4.55a4 4 0 0 1 3-1.21 4.09 4.09 0 0 1 3 1.21c1.11 1.11 1.08 2.37 1.08 4.55s.03 3.46-1.08 4.55zM14.83 31a2.38 2.38 0 0 0-3.37 0c-.56.6-.67 1.24-.67 3.51s.11 2.91.67 3.51a2.38 2.38 0 0 0 3.37 0c.56-.6.67-1.24.67-3.51s-.12-2.87-.67-3.51zM26.4 39.09a4.28 4.28 0 0 1-6 0c-1.11-1.11-1.1-2.37-1.1-4.55s0-3.43 1.1-4.55a4.28 4.28 0 0 1 6 0c1.11 1.11 1.08 2.37 1.08 4.55s.03 3.46-1.08 4.55zM25.09 31a2.38 2.38 0 0 0-3.37 0c-.56.6-.67 1.24-.67 3.51s.11 2.91.67 3.51a2.38 2.38 0 0 0 3.37 0c.56-.6.67-1.24.67-3.51s-.11-2.87-.67-3.51zM38.28 40.21v-7.57l-2.61 5.52H34.4l-2.67-5.52v7.57H30V28.89h1.72l3.31 7 3.24-7H40v11.32zM20.13 6c-.32-.43-.81-1.29-.28-2a4.12 4.12 0 0 0 .59-3.8.36.36 0 0 0-.68.26 3.39 3.39 0 0 1-.48 3.1 2.14 2.14 0 0 0 0 2.45 6.46 6.46 0 0 0-5.74 6.41v7.27a6.45 6.45 0 1 0 12.91 0v-7.25A6.45 6.45 0 0 0 20.13 6zm.59 5.79a.73.73 0 0 1-1.47 0v-3.7a.73.73 0 1 1 1.47 0z"/></g></g></svg></svg>