<svg xmlns="http://www.w3.org/2000/svg" viewBox="0 0 28 28"><title>icon-info</title><g id="Слой_2" data-name="Слой 2"><g id="Слой_1-2" data-name="Слой 1"><path d="M14,0A14,14,0,1,0,28,14,14,14,0,0,0,14,0Zm2.92,21.7c-.72.28-1.3.5-1.72.65a4.48,4.48,0,0,1-1.49.23,3,3,0,0,1-2-.64,2,2,0,0,1-.72-1.62,6.14,6.14,0,0,1,.05-.78,9.11,9.11,0,0,1,.17-.9l.9-3.19c.08-.31.15-.6.2-.86a4,4,0,0,0,.08-.75,1.15,1.15,0,0,0-.25-.85,1.41,1.41,0,0,0-1-.24,2.63,2.63,0,0,0-.72.1l-.62.21.24-1c.59-.24,1.16-.45,1.69-.62a5,5,0,0,1,1.53-.26,2.91,2.91,0,0,1,2,.63A2.08,2.08,0,0,1,16,13.46c0,.14,0,.38,0,.73a5,5,0,0,1-.18,1l-.9,3.18c-.08.25-.14.55-.2.87a4.59,4.59,0,0,0-.09.74,1.07,1.07,0,0,0,.28.86,1.57,1.57,0,0,0,1,.23,2.85,2.85,0,0,0,.74-.12,4.25,4.25,0,0,0,.6-.2ZM16.76,8.81a2.26,2.26,0,0,1-3,0,1.87,1.87,0,0,1-.63-1.42A1.89,1.89,0,0,1,13.73,6a2.26,2.26,0,0,1,3,0,1.89,1.89,0,0,1,.63,1.42,1.87,1.87,0,0,1-.63,1.42Zm0,0" style="fill:#1a9000"/><path d="M14,0A14,14,0,1,0,28,14,14,14,0,0,0,14,0Zm2.92,21.7c-.72.28-1.3.5-1.72.65a4.48,4.48,0,0,1-1.49.23,3,3,0,0,1-2-.64,2,2,0,0,1-.72-1.62,6.14,6.14,0,0,1,.05-.78,9.11,9.11,0,0,1,.17-.9l.9-3.19c.08-.31.15-.6.2-.86a4,4,0,0,0,.08-.75,1.15,1.15,0,0,0-.25-.85,1.41,1.41,0,0,0-1-.24,2.63,2.63,0,0,0-.72.1l-.62.21.24-1c.59-.24,1.16-.45,1.69-.62a5,5,0,0,1,1.53-.26,2.91,2.91,0,0,1,2,.63A2.08,2.08,0,0,1,16,13.46c0,.14,0,.38,0,.73a5,5,0,0,1-.18,1l-.9,3.18c-.08.25-.14.55-.2.87a4.59,4.59,0,0,0-.09.74,1.07,1.07,0,0,0,.28.86,1.57,1.57,0,0,0,1,.23,2.85,2.85,0,0,0,.74-.12,4.25,4.25,0,0,0,.6-.2ZM16.76,8.81a2.26,2.26,0,0,1-3,0,1.87,1.87,0,0,1-.63-1.42A1.89,1.89,0,0,1,13.73,6a2.26,2.26,0,0,1,3,0,1.89,1.89,0,0,1,.63,1.42,1.87,1.87,0,0,1-.63,1.42Zm0,0" style="fill:#1a9000"/></g></g></svg>