<svg xmlns="http://www.w3.org/2000/svg" xmlns:xlink="http://www.w3.org/1999/xlink" viewBox="0 0 30 30.02"><defs><linearGradient id="linear-gradient" x1="15" y1="1.93" x2="15" y2="27.36" gradientUnits="userSpaceOnUse"><stop offset="0" stop-color="#4e6abd"/><stop offset="1" stop-color="#3e51a0"/></linearGradient></defs><title>icon-fb</title><g id="Слой_2" data-name="Слой 2"><g id="Слой_1-2" data-name="Слой 1"><path d="M6.6,0H23.4A6.63,6.63,0,0,1,30,6.6V23.4A6.63,6.63,0,0,1,23.4,30H6.6A6.62,6.62,0,0,1,0,23.4V6.6A6.62,6.62,0,0,1,6.6,0Z" style="fill-rule:evenodd;fill:url(#linear-gradient)"/><path d="M16.44,11.61V10.16a.76.76,0,0,1,.8-.86h2V6.2h-2.8A3.51,3.51,0,0,0,12.68,10v1.63h-1.8v3.61H12.7v9h3.61v-9H19l.12-1.42.21-2.19Z" style="fill:#fefefe;fill-rule:evenodd"/></g></g></svg>