<svg xmlns="http://www.w3.org/2000/svg" viewBox="0 0 28 28"><title>icon-new</title><g id="Слой_2" data-name="Слой 2"><g id="Слой_1-2" data-name="Слой 1"><path d="M14,0A14,14,0,1,0,28,14,14,14,0,0,0,14,0Z" style="fill:#1a9000"/><path d="M5.6,17.37V11.3h.86L8.4,14.37a17.15,17.15,0,0,1,1.09,2h0c-.07-.81-.09-1.55-.09-2.49V11.3h.74v6.07H9.37L7.44,14.29a19.27,19.27,0,0,1-1.13-2h0c0,.77.06,1.49.06,2.5v2.59Z" style="fill:#fff"/><path d="M14.67,14.52H12.31v2.19h2.63v.66H11.53V11.3H14.8V12H12.31v1.92h2.36Z" style="fill:#fff"/><path d="M17,17.37,15.49,11.3h.83L17,14.37c.18.76.34,1.51.45,2.1h0c.1-.6.29-1.32.5-2.11l.81-3.06h.82l.74,3.08c.17.72.33,1.44.42,2.08h0c.13-.67.3-1.34.49-2.1l.8-3.06h.8l-1.72,6.07h-.82l-.77-3.16a18.3,18.3,0,0,1-.4-2h0a18.9,18.9,0,0,1-.47,2l-.86,3.16Z" style="fill:#fff"/></g></g></svg>