<svg xmlns="http://www.w3.org/2000/svg" viewBox="0 0 40 40"><title>icon-share</title><g id="Слой_2" data-name="Слой 2"><g id="Слой_1-2" data-name="Слой 1"><path d="M35.64,0a4.37,4.37,0,0,0-4.37,4.36,4.31,4.31,0,0,0,.53,2.08l-7.15,7.15a5.77,5.77,0,0,0-7.12,0L11.95,8a2.83,2.83,0,0,0,.42-1.47A3,3,0,1,0,10.92,9l5.58,5.58a5.77,5.77,0,0,0,0,7.12L7.29,31a4.35,4.35,0,1,0,1.44,3.23A4.32,4.32,0,0,0,8.2,32.1l9.33-9.33a5.76,5.76,0,0,0,2.84,1.17v7.39a4.35,4.35,0,1,0,1.45,0V23.94a5.84,5.84,0,0,0,2.84-1.17l5.57,5.57a3,3,0,0,0-.41,1.47,2.91,2.91,0,1,0,2.91-2.9,2.82,2.82,0,0,0-1.47.41l-5.58-5.58a5.77,5.77,0,0,0,0-7.12l7-7A4.36,4.36,0,1,0,35.64,0Z" style="fill:#1a9000"/></g></g></svg>