<svg xmlns="http://www.w3.org/2000/svg" xmlns:xlink="http://www.w3.org/1999/xlink" viewBox="0 0 50.05 50.05"><defs><clipPath id="clip-path"><rect y="0.05" width="50" height="50.2" style="fill:none"/></clipPath></defs><title>icon-login</title><g id="Слой_2" data-name="Слой 2"><g id="Слой_1-2" data-name="Слой 1"><g style="clip-path:url(#clip-path)"><path d="M25,0A25,25,0,1,0,50,25,25,25,0,0,0,25,0Zm.08,36.83H14.26C14.26,29,21.12,29,22.65,27l.17-.93a7.47,7.47,0,0,1-3.65-6.76c0-4,2.62-7.3,5.85-7.3s5.85,3.27,5.85,7.3A7.5,7.5,0,0,1,27.28,26l.2,1.06c1.67,1.94,8.31,2.07,8.31,9.76Zm0,0" style="fill:#1a9000"/></g></g></g></svg>