<svg xmlns="http://www.w3.org/2000/svg" viewBox="0 0 40 40"><title>icon-zone-green</title><g id="Слой_2" data-name="Слой 2"><g id="Слой_1-2" data-name="Слой 1"><path d="M0,39.9V38.36l5.44-8.63H.23v-1.6H7.54v1.45L2.07,38.3H7.54v1.6Z" style="fill:#1a9000"/><path d="M16.78,38.74A4.25,4.25,0,0,1,13.67,40a4.21,4.21,0,0,1-3.09-1.26C9.42,37.59,9.44,36.28,9.44,34s0-3.57,1.14-4.73A4.21,4.21,0,0,1,13.67,28a4.25,4.25,0,0,1,3.11,1.26c1.16,1.16,1.12,2.46,1.12,4.73S17.94,37.59,16.78,38.74Zm-1.36-8.38a2.47,2.47,0,0,0-3.5,0c-.58.63-.69,1.29-.69,3.65s.12,3,.69,3.65a2.47,2.47,0,0,0,3.5,0c.58-.63.69-1.29.69-3.65S16,31,15.42,30.36Z" style="fill:#1a9000"/><path d="M27.77,39.9l-5.44-8.28V39.9H20.54V28.13h1.64l5.44,8.27V28.13h1.79V39.9Z" style="fill:#1a9000"/><path d="M32.48,39.9V28.13H40v1.6H34.26v3.44h4.89v1.59H34.26V38.3H40v1.6Z" style="fill:#1a9000"/><path d="M0,39.9V38.36l5.44-8.63H.23v-1.6H7.54v1.45L2.07,38.3H7.54v1.6Z" style="fill:#1a9000"/><path d="M16.78,38.74A4.25,4.25,0,0,1,13.67,40a4.21,4.21,0,0,1-3.09-1.26C9.42,37.59,9.44,36.28,9.44,34s0-3.57,1.14-4.73A4.21,4.21,0,0,1,13.67,28a4.25,4.25,0,0,1,3.11,1.26c1.16,1.16,1.12,2.46,1.12,4.73S17.94,37.59,16.78,38.74Zm-1.36-8.38a2.47,2.47,0,0,0-3.5,0c-.58.63-.69,1.29-.69,3.65s.12,3,.69,3.65a2.47,2.47,0,0,0,3.5,0c.58-.63.69-1.29.69-3.65S16,31,15.42,30.36Z" style="fill:#1a9000"/><path d="M27.77,39.9l-5.44-8.28V39.9H20.54V28.13h1.64l5.44,8.27V28.13h1.79V39.9Z" style="fill:#1a9000"/><path d="M32.48,39.9V28.13H40v1.6H34.26v3.44h4.89v1.59H34.26V38.3H40v1.6Z" style="fill:#1a9000"/><path d="M21.45,9.36l-.72,2a.8.8,0,0,1,.1.38A.82.82,0,1,1,19.68,11l.72-2a2.78,2.78,0,0,0-.4,0,2.85,2.85,0,1,0,1.45.41Z" style="fill:#1a9000"/><circle cx="13.11" cy="15.41" r="0.82" style="fill:#1a9000"/><path d="M25.52,11.77a2,2,0,0,1,1.36-1.88,7.17,7.17,0,0,0-4-4.65L21.82,8.3a3.71,3.71,0,1,1-1-.39l1.08-3a7.12,7.12,0,0,0-8.77,8.71h.07a1.83,1.83,0,0,1,1.48,2.91,7.13,7.13,0,0,0,12.25-2.83A2,2,0,0,1,25.52,11.77Z" style="fill:#1a9000"/><path d="M24.46.88,23.28,4.19A8.28,8.28,0,0,1,28,9.85a2,2,0,0,1,0,3.85,8.25,8.25,0,0,1-14.29,3.45,1.81,1.81,0,0,1-.57.1A1.83,1.83,0,0,1,12,14,8.24,8.24,0,0,1,22.23,3.82L23.41.51a11.8,11.8,0,1,0,1,.37Z" style="fill:#1a9000"/><circle cx="27.6" cy="11.77" r="1.03" style="fill:#1a9000"/></g></g></svg>